<mxfile host="app.diagrams.net" modified="2023-10-07T14:58:34.386Z" agent="Mozilla/5.0 (Windows NT 10.0; Win64; x64) AppleWebKit/537.36 (KHTML, like Gecko) Chrome/117.0.0.0 Safari/537.36" etag="Q_eRdORnkpFljhGfnww8" version="22.0.4" type="google">
  <diagram name="Page-1" id="VY2gpwswM2VbtQHK_n5b">
    <mxGraphModel grid="1" page="1" gridSize="10" guides="1" tooltips="1" connect="1" arrows="1" fold="1" pageScale="1" pageWidth="827" pageHeight="1169" math="0" shadow="0">
      <root>
        <mxCell id="0" />
        <mxCell id="1" parent="0" />
        <mxCell id="Ue1WuniKlmC-vrjqjqfa-1" value="" style="dashed=0;outlineConnect=0;html=1;align=center;labelPosition=center;verticalLabelPosition=bottom;verticalAlign=top;shape=mxgraph.weblogos.github" vertex="1" parent="1">
          <mxGeometry x="230" y="50" width="75" height="75" as="geometry" />
        </mxCell>
        <mxCell id="Ue1WuniKlmC-vrjqjqfa-6" value="" style="image;sketch=0;aspect=fixed;html=1;points=[];align=center;fontSize=12;image=img/lib/mscae/Azure_Pipelines.svg;" vertex="1" parent="1">
          <mxGeometry x="235.63" y="296.25" width="63.75" height="63.75" as="geometry" />
        </mxCell>
        <mxCell id="Ue1WuniKlmC-vrjqjqfa-7" value="" style="image;sketch=0;aspect=fixed;html=1;points=[];align=center;fontSize=12;image=img/lib/mscae/Docker.svg;" vertex="1" parent="1">
          <mxGeometry x="410" y="190" width="98.78" height="81" as="geometry" />
        </mxCell>
        <mxCell id="Ue1WuniKlmC-vrjqjqfa-9" value="" style="image;aspect=fixed;html=1;points=[];align=center;fontSize=12;image=img/lib/azure2/compute/Kubernetes_Services.svg;" vertex="1" parent="1">
          <mxGeometry x="700" y="288.13" width="81.46" height="71.87" as="geometry" />
        </mxCell>
        <mxCell id="Ue1WuniKlmC-vrjqjqfa-10" value="" style="shape=flexArrow;endArrow=classic;html=1;rounded=0;entryX=0.43;entryY=0.02;entryDx=0;entryDy=0;entryPerimeter=0;" edge="1" parent="1" target="Ue1WuniKlmC-vrjqjqfa-6">
          <mxGeometry width="50" height="50" relative="1" as="geometry">
            <mxPoint x="267" y="125" as="sourcePoint" />
            <mxPoint x="267" y="176" as="targetPoint" />
          </mxGeometry>
        </mxCell>
        <mxCell id="Ue1WuniKlmC-vrjqjqfa-12" value="" style="shape=flexArrow;endArrow=classic;html=1;rounded=0;entryX=-0.03;entryY=0.593;entryDx=0;entryDy=0;entryPerimeter=0;exitX=1.067;exitY=0.184;exitDx=0;exitDy=0;exitPerimeter=0;" edge="1" parent="1" source="Ue1WuniKlmC-vrjqjqfa-6" target="Ue1WuniKlmC-vrjqjqfa-7">
          <mxGeometry width="50" height="50" relative="1" as="geometry">
            <mxPoint x="292.5" y="340" as="sourcePoint" />
            <mxPoint x="342.5" y="290" as="targetPoint" />
          </mxGeometry>
        </mxCell>
        <mxCell id="Ue1WuniKlmC-vrjqjqfa-13" value="" style="shape=flexArrow;endArrow=classic;html=1;rounded=0;entryX=-0.029;entryY=0.55;entryDx=0;entryDy=0;entryPerimeter=0;exitX=1.03;exitY=0.6;exitDx=0;exitDy=0;exitPerimeter=0;" edge="1" parent="1" source="Ue1WuniKlmC-vrjqjqfa-6" target="Ue1WuniKlmC-vrjqjqfa-9">
          <mxGeometry width="50" height="50" relative="1" as="geometry">
            <mxPoint x="360" y="360" as="sourcePoint" />
            <mxPoint x="410" y="310" as="targetPoint" />
          </mxGeometry>
        </mxCell>
        <mxCell id="Ue1WuniKlmC-vrjqjqfa-14" value="" style="shape=flexArrow;endArrow=classic;html=1;rounded=0;exitX=1.033;exitY=0.58;exitDx=0;exitDy=0;exitPerimeter=0;" edge="1" parent="1" source="Ue1WuniKlmC-vrjqjqfa-7">
          <mxGeometry width="50" height="50" relative="1" as="geometry">
            <mxPoint x="544" y="250" as="sourcePoint" />
            <mxPoint x="710" y="290" as="targetPoint" />
          </mxGeometry>
        </mxCell>
        <mxCell id="Ue1WuniKlmC-vrjqjqfa-15" value="" style="sketch=0;aspect=fixed;pointerEvents=1;shadow=0;dashed=0;html=1;strokeColor=none;labelPosition=center;verticalLabelPosition=bottom;verticalAlign=top;align=center;fillColor=#00188D;shape=mxgraph.azure.laptop" vertex="1" parent="1">
          <mxGeometry x="30" y="55" width="116.67" height="70" as="geometry" />
        </mxCell>
        <mxCell id="Ue1WuniKlmC-vrjqjqfa-18" value="" style="shape=flexArrow;endArrow=classic;html=1;rounded=0;exitX=0.92;exitY=0.5;exitDx=0;exitDy=0;exitPerimeter=0;" edge="1" parent="1" source="Ue1WuniKlmC-vrjqjqfa-15" target="Ue1WuniKlmC-vrjqjqfa-1">
          <mxGeometry width="50" height="50" relative="1" as="geometry">
            <mxPoint x="140" y="100" as="sourcePoint" />
            <mxPoint x="190" y="50" as="targetPoint" />
          </mxGeometry>
        </mxCell>
        <mxCell id="Ue1WuniKlmC-vrjqjqfa-19" value="Docker Hub&lt;br style=&quot;font-size: 18px;&quot;&gt;" style="text;html=1;align=center;verticalAlign=middle;resizable=0;points=[];autosize=1;strokeColor=none;fillColor=none;strokeWidth=6;fontSize=18;" vertex="1" parent="1">
          <mxGeometry x="399.39" y="145" width="120" height="40" as="geometry" />
        </mxCell>
        <mxCell id="Ue1WuniKlmC-vrjqjqfa-20" value="Developer Laptop" style="text;html=1;align=center;verticalAlign=middle;resizable=0;points=[];autosize=1;strokeColor=none;fillColor=none;strokeWidth=6;fontSize=18;" vertex="1" parent="1">
          <mxGeometry x="10" y="140" width="170" height="40" as="geometry" />
        </mxCell>
        <mxCell id="Ue1WuniKlmC-vrjqjqfa-21" value="Devsutestapp Project Repository" style="text;html=1;align=center;verticalAlign=middle;resizable=0;points=[];autosize=1;strokeColor=none;fillColor=none;strokeWidth=6;fontSize=18;" vertex="1" parent="1">
          <mxGeometry x="120" y="10" width="290" height="40" as="geometry" />
        </mxCell>
        <mxCell id="Ue1WuniKlmC-vrjqjqfa-22" value="Azure DevOps Pipeline" style="text;html=1;align=center;verticalAlign=middle;resizable=0;points=[];autosize=1;strokeColor=none;fillColor=none;strokeWidth=6;fontSize=18;" vertex="1" parent="1">
          <mxGeometry x="19.999999999999996" y="308.12" width="210" height="40" as="geometry" />
        </mxCell>
        <mxCell id="Ue1WuniKlmC-vrjqjqfa-23" value="Azure &lt;br&gt;Kubernetes&lt;br&gt;Service" style="text;html=1;align=center;verticalAlign=middle;resizable=0;points=[];autosize=1;strokeColor=none;fillColor=none;strokeWidth=6;fontSize=18;" vertex="1" parent="1">
          <mxGeometry x="680.73" y="360" width="120" height="80" as="geometry" />
        </mxCell>
      </root>
    </mxGraphModel>
  </diagram>
</mxfile>
